<?xml version="1.0" encoding="UTF-8" standalone="no"?>
<!DOCTYPE svg PUBLIC "-//W3C//DTD SVG 1.1//EN"
 "http://www.w3.org/Graphics/SVG/1.1/DTD/svg11.dtd">
<!-- Generated by graphviz version 2.40.1 (20161225.0304)
 -->
<!-- Title: model Pages: 1 -->
<svg width="557pt" height="124pt"
 viewBox="0.00 0.00 557.18 123.74" xmlns="http://www.w3.org/2000/svg" xmlns:xlink="http://www.w3.org/1999/xlink">
<g id="graph0" class="graph" transform="scale(1 1) rotate(0) translate(4 119.7445)">
<title>model</title>
<polygon fill="#ffffff" stroke="transparent" points="-4,4 -4,-119.7445 553.1845,-119.7445 553.1845,4 -4,4"/>
<!-- CWS -->
<g id="node1" class="node">
<title>CWS</title>
<polygon fill="#8fbc8f" stroke="#8fbc8f" points="247.5952,-106.4469 193.5952,-106.4469 193.5952,-70.4469 247.5952,-70.4469 247.5952,-106.4469"/>
<text text-anchor="middle" x="220.5952" y="-84.7469" font-family="Times,serif" font-size="14.00" fill="#000000">CWS</text>
</g>
<!-- CW -->
<g id="node7" class="node">
<title>CW</title>
<ellipse fill="#b0c4de" stroke="#b0c4de" cx="308.9429" cy="-88.4469" rx="25.1964" ry="25.1964"/>
<text text-anchor="middle" x="308.9429" y="-84.7469" font-family="Times,serif" font-size="14.00" fill="#000000">CW</text>
</g>
<!-- CWS&#45;&gt;CW -->
<g id="edge5" class="edge">
<title>CWS&#45;&gt;CW</title>
<path fill="none" stroke="#228b22" d="M248.0646,-88.4469C255.9714,-88.4469 264.7154,-88.4469 273.0514,-88.4469"/>
<polygon fill="#228b22" stroke="#228b22" points="283.2982,-88.4469 273.2983,-92.947 278.2982,-88.447 273.2982,-88.447 273.2982,-88.447 273.2982,-88.447 278.2982,-88.447 273.2982,-83.947 283.2982,-88.4469 283.2982,-88.4469"/>
</g>
<!-- TES -->
<g id="node2" class="node">
<title>TES</title>
<polygon fill="#8fbc8f" stroke="#8fbc8f" points="434.2907,-106.4469 380.2907,-106.4469 380.2907,-70.4469 434.2907,-70.4469 434.2907,-106.4469"/>
<text text-anchor="middle" x="407.2907" y="-84.7469" font-family="Times,serif" font-size="14.00" fill="#000000">TES</text>
</g>
<!-- TES&#45;&gt;CW -->
<g id="edge4" class="edge">
<title>TES&#45;&gt;CW</title>
<path fill="none" stroke="#228b22" d="M380.0586,-94.5602C368.8487,-95.256 355.7251,-95.3815 343.8246,-94.9369"/>
<polygon fill="#228b22" stroke="#228b22" points="333.7602,-94.3993 343.986,-90.4392 338.7531,-94.6661 343.746,-94.9328 343.746,-94.9328 343.746,-94.9328 338.7531,-94.6661 343.5059,-99.4264 333.7602,-94.3993 333.7602,-94.3993"/>
</g>
<!-- IMPELC -->
<g id="node3" class="node">
<title>IMPELC</title>
<polygon fill="#8fbc8f" stroke="#8fbc8f" points="67,-106.4469 0,-106.4469 0,-70.4469 67,-70.4469 67,-106.4469"/>
<text text-anchor="middle" x="33.5" y="-84.7469" font-family="Times,serif" font-size="14.00" fill="#000000">IMPELC</text>
</g>
<!-- ELC -->
<g id="node6" class="node">
<title>ELC</title>
<ellipse fill="#b0c4de" stroke="#b0c4de" cx="130.2976" cy="-88.4469" rx="27.0966" ry="27.0966"/>
<text text-anchor="middle" x="130.2976" y="-84.7469" font-family="Times,serif" font-size="14.00" fill="#000000">ELC</text>
</g>
<!-- IMPELC&#45;&gt;ELC -->
<g id="edge6" class="edge">
<title>IMPELC&#45;&gt;ELC</title>
<path fill="none" stroke="#228b22" d="M67.0834,-88.4469C75.391,-88.4469 84.343,-88.4469 92.823,-88.4469"/>
<polygon fill="#228b22" stroke="#228b22" points="102.8576,-88.4469 92.8576,-92.947 97.8576,-88.447 92.8576,-88.447 92.8576,-88.447 92.8576,-88.447 97.8576,-88.447 92.8575,-83.947 102.8576,-88.4469 102.8576,-88.4469"/>
</g>
<!-- CW_PIPE -->
<g id="node4" class="node">
<title>CW_PIPE</title>
<polygon fill="#8fbc8f" stroke="#8fbc8f" points="444.2907,-52.4469 370.2907,-52.4469 370.2907,-16.4469 444.2907,-16.4469 444.2907,-52.4469"/>
<text text-anchor="middle" x="407.2907" y="-30.7469" font-family="Times,serif" font-size="14.00" fill="#000000">CW_PIPE</text>
</g>
<!-- COOL -->
<g id="node5" class="node">
<title>COOL</title>
<ellipse fill="#b0c4de" stroke="#b0c4de" cx="514.7376" cy="-34.4469" rx="34.394" ry="34.394"/>
<text text-anchor="middle" x="514.7376" y="-30.7469" font-family="Times,serif" font-size="14.00" fill="#000000">COOL</text>
</g>
<!-- CW_PIPE&#45;&gt;COOL -->
<g id="edge7" class="edge">
<title>CW_PIPE&#45;&gt;COOL</title>
<path fill="none" stroke="#228b22" d="M444.5688,-34.4469C452.7562,-34.4469 461.5074,-34.4469 469.9552,-34.4469"/>
<polygon fill="#228b22" stroke="#228b22" points="480.0509,-34.4469 470.0509,-38.947 475.0509,-34.447 470.0509,-34.447 470.0509,-34.447 470.0509,-34.447 475.0509,-34.447 470.0508,-29.947 480.0509,-34.4469 480.0509,-34.4469"/>
</g>
<!-- ELC&#45;&gt;CWS -->
<g id="edge2" class="edge">
<title>ELC&#45;&gt;CWS</title>
<path fill="none" stroke="#b22222" d="M157.8805,-88.4469C165.9187,-88.4469 174.8371,-88.4469 183.3662,-88.4469"/>
<polygon fill="#b22222" stroke="#b22222" points="193.4914,-88.4469 183.4915,-92.947 188.4914,-88.447 183.4914,-88.447 183.4914,-88.447 183.4914,-88.447 188.4914,-88.447 183.4914,-83.947 193.4914,-88.4469 193.4914,-88.4469"/>
</g>
<!-- CW&#45;&gt;TES -->
<g id="edge3" class="edge">
<title>CW&#45;&gt;TES</title>
<path fill="none" stroke="#b22222" d="M333.7602,-82.4946C344.675,-81.7158 357.7318,-81.5073 369.7937,-81.869"/>
<polygon fill="#b22222" stroke="#b22222" points="380.0586,-82.3337 369.8653,-86.3768 375.0637,-82.1075 370.0688,-81.8814 370.0688,-81.8814 370.0688,-81.8814 375.0637,-82.1075 370.2723,-77.386 380.0586,-82.3337 380.0586,-82.3337"/>
</g>
<!-- CW&#45;&gt;CW_PIPE -->
<g id="edge1" class="edge">
<title>CW&#45;&gt;CW_PIPE</title>
<path fill="none" stroke="#b22222" d="M331.2595,-76.1935C341.3757,-70.639 353.6794,-63.8834 365.4158,-57.4393"/>
<polygon fill="#b22222" stroke="#b22222" points="374.2345,-52.5972 367.6347,-61.3547 369.8517,-55.0037 365.4689,-57.4102 365.4689,-57.4102 365.4689,-57.4102 369.8517,-55.0037 363.303,-53.4657 374.2345,-52.5972 374.2345,-52.5972"/>
</g>
</g>
</svg>
